grf
version=1
nRows=17
nColumns=37
inDegrees=no
endheader
time	ground_force_1_vx	ground_force_1_vy	ground_force_1_vz	ground_force_1_px	ground_force_1_py	ground_force_1_pz	ground_moment_1_mx	ground_moment_1_my	ground_moment_1_mz	ground_force_2_vx	ground_force_2_vy	ground_force_2_vz	ground_force_2_px	ground_force_2_py	ground_force_2_pz	ground_moment_2_mx	ground_moment_2_my	ground_moment_2_mz	ground_force_3_vx	ground_force_3_vy	ground_force_3_vz	ground_force_3_px	ground_force_3_py	ground_force_3_pz	ground_moment_3_mx	ground_moment_3_my	ground_moment_3_mz	ground_force_4_vx	ground_force_4_vy	ground_force_4_vz	ground_force_4_px	ground_force_4_py	ground_force_4_pz	ground_moment_4_mx	ground_moment_4_my	ground_moment_4_mz
      0.00000000	      0.00000000	     -0.00000000	      0.00000000	      0.00000000	      0.00000000	      0.00000000	      0.00000000	      0.00000000	      0.00000000	     -3.30607510	     26.76011467	   -418.14413452	   -310.05951256	   -981.33332202	      0.00000000	      0.00000000	      0.00000000	   3006.93878075	      0.12529531	    -27.57732392	   -370.44989014	   -284.09871603	   -721.59396269	      0.00000000	      0.00000000	     -0.00000000	  -2272.19379130	      0.00000000	     -0.00000000	      0.00000000	      0.00000000	      0.00000000	      0.00000000	      0.00000000	      0.00000000	      0.00000000
      0.01000000	      0.00000000	     -0.00000000	      0.00000000	      0.00000000	      0.00000000	      0.00000000	      0.00000000	      0.00000000	      0.00000000	     -2.81310105	     26.66583443	   -418.93420410	   -309.86290371	   -980.82231522	      0.00000000	      0.00000000	      0.00000000	   3134.79716799	     -0.02085738	    -27.17188263	   -368.37539673	   -284.42210515	   -722.52157332	      0.00000000	      0.00000000	     -0.00000000	  -2270.40554548	      0.00000000	     -0.00000000	      0.00000000	      0.00000000	      0.00000000	      0.00000000	      0.00000000	      0.00000000	      0.00000000
      0.02000000	      0.00000000	     -0.00000000	      0.00000000	      0.00000000	      0.00000000	      0.00000000	      0.00000000	      0.00000000	      0.00000000	     -2.97592521	     26.84422493	   -420.71896362	   -310.00547638	   -980.37447327	      0.00000000	      0.00000000	      0.00000000	   2988.09488366	      0.12516531	    -27.32285691	   -368.00579834	   -284.07786897	   -722.59673802	      0.00000000	      0.00000000	     -0.00000000	  -2259.84912507	      0.00000000	     -0.00000000	      0.00000000	      0.00000000	      0.00000000	      0.00000000	      0.00000000	      0.00000000	      0.00000000
      0.03000000	      0.00000000	     -0.00000000	      0.00000000	      0.00000000	      0.00000000	      0.00000000	      0.00000000	      0.00000000	      0.00000000	     -2.76978111	     27.05913925	   -421.67999268	   -310.18135785	   -980.29931414	      0.00000000	      0.00000000	      0.00000000	   3071.44458800	      0.35035262	    -26.87013820	   -366.86026001	   -284.57226519	   -722.47896411	      0.00000000	     -0.00000000	     -0.00000000	  -2416.58583310	      0.00000000	     -0.00000000	      0.00000000	      0.00000000	      0.00000000	      0.00000000	      0.00000000	      0.00000000	      0.00000000
      0.04000000	      0.00000000	     -0.00000000	      0.00000000	      0.00000000	      0.00000000	      0.00000000	      0.00000000	      0.00000000	      0.00000000	     -2.44515371	     27.06705475	   -423.04516602	   -310.12633130	   -980.19698775	      0.00000000	      0.00000000	      0.00000000	   3179.48966991	      0.30244693	    -26.90195658	   -365.76797485	   -283.79616786	   -721.96753948	      0.00000000	     -0.00000000	     -0.00000000	  -2240.49843053	      0.00000000	     -0.00000000	      0.00000000	      0.00000000	      0.00000000	      0.00000000	      0.00000000	      0.00000000	      0.00000000
      0.05000000	      0.00000000	     -0.00000000	      0.00000000	      0.00000000	      0.00000000	      0.00000000	      0.00000000	      0.00000000	      0.00000000	     -2.29948807	     27.16837311	   -422.12915039	   -310.21264389	   -979.05914261	      0.00000000	      0.00000000	      0.00000000	   3212.80625261	      0.61716468	    -26.44427114	   -364.21398926	   -284.10109093	   -722.37187991	      0.00000000	     -0.00000000	     -0.00000000	  -2222.75333084	      0.00000000	     -0.00000000	      0.00000000	      0.00000000	      0.00000000	      0.00000000	      0.00000000	      0.00000000	      0.00000000
      0.06000000	      0.00000000	     -0.00000000	      0.00000000	      0.00000000	      0.00000000	      0.00000000	      0.00000000	      0.00000000	      0.00000000	     -1.98240805	     26.99319649	   -424.65335083	   -310.99691075	   -979.34594307	      0.00000000	      0.00000000	      0.00000000	   3173.80200426	      0.46337165	    -26.37216572	   -363.75161743	   -284.45341792	   -721.98751618	      0.00000000	     -0.00000000	     -0.00000000	  -2320.74154143	      0.00000000	     -0.00000000	      0.00000000	      0.00000000	      0.00000000	      0.00000000	      0.00000000	      0.00000000	      0.00000000
      0.07000000	      0.00000000	     -0.00000000	      0.00000000	      0.00000000	      0.00000000	      0.00000000	      0.00000000	      0.00000000	      0.00000000	     -1.97930765	     27.34637260	   -425.08508301	   -311.11815908	   -978.62921600	      0.00000000	      0.00000000	      0.00000000	   3028.35141438	      0.49614715	    -26.60437588	   -363.11767578	   -284.51079011	   -722.67129286	      0.00000000	      0.00000000	     -0.00000000	  -2340.04441193	      0.00000000	     -0.00000000	      0.00000000	      0.00000000	      0.00000000	      0.00000000	      0.00000000	      0.00000000	      0.00000000
      0.08000000	      0.00000000	     -0.00000000	      0.00000000	      0.00000000	      0.00000000	      0.00000000	      0.00000000	      0.00000000	      0.00000000	     -1.65880799	     27.22093201	   -426.22155762	   -311.42691259	   -978.40798263	      0.00000000	      0.00000000	      0.00000000	   2996.94132471	      0.63760349	    -26.24809843	   -361.71014404	   -284.62643859	   -722.76268958	      0.00000000	     -0.00000000	     -0.00000000	  -2493.64135220	      0.00000000	     -0.00000000	      0.00000000	      0.00000000	      0.00000000	      0.00000000	      0.00000000	      0.00000000	      0.00000000
      0.09000000	      0.00000000	     -0.00000000	      0.00000000	      0.00000000	      0.00000000	      0.00000000	      0.00000000	      0.00000000	      0.00000000	     -1.12582064	     27.40133476	   -427.63375854	   -312.03529683	   -978.53927147	      0.00000000	      0.00000000	      0.00000000	   3150.31322677	      0.21584900	    -25.88069727	   -361.03244019	   -284.49718608	   -722.59451083	      0.00000000	      0.00000000	     -0.00000000	  -2262.44154627	      0.00000000	     -0.00000000	      0.00000000	      0.00000000	      0.00000000	      0.00000000	      0.00000000	      0.00000000	      0.00000000
      0.10000000	      0.00000000	     -0.00000000	      0.00000000	      0.00000000	      0.00000000	      0.00000000	      0.00000000	      0.00000000	      0.00000000	     -0.69471198	     27.39906120	   -428.41473389	   -312.31223224	   -979.00087475	      0.00000000	      0.00000000	      0.00000000	   3312.32810272	      0.63573422	    -25.71842771	   -358.78652954	   -283.92084807	   -723.50065843	      0.00000000	     -0.00000000	     -0.00000000	  -2423.46699953	      0.00000000	     -0.00000000	      0.00000000	      0.00000000	      0.00000000	      0.00000000	      0.00000000	      0.00000000	      0.00000000
      0.11000000	      0.00000000	     -0.00000000	      0.00000000	      0.00000000	      0.00000000	      0.00000000	      0.00000000	      0.00000000	      0.00000000	     -0.85762596	     27.41621017	   -429.39859009	   -312.16415611	   -979.21944329	      0.00000000	      0.00000000	      0.00000000	   2990.54581730	      0.44530619	    -25.82386402	   -358.43768311	   -284.22823733	   -723.37503609	      0.00000000	      0.00000000	     -0.00000000	  -2443.49730151	      0.00000000	     -0.00000000	      0.00000000	      0.00000000	      0.00000000	      0.00000000	      0.00000000	      0.00000000	      0.00000000
      0.12000000	      0.00000000	     -0.00000000	      0.00000000	      0.00000000	      0.00000000	      0.00000000	      0.00000000	      0.00000000	      0.00000000	     -0.69631386	     27.75426483	   -429.75588989	   -313.00820345	   -978.79415009	      0.00000000	      0.00000000	      0.00000000	   3300.15278033	      0.72685428	    -25.70018775	   -356.48944092	   -284.42588357	   -724.10561740	      0.00000000	      0.00000000	     -0.00000000	  -2415.42365894	      0.00000000	     -0.00000000	      0.00000000	      0.00000000	      0.00000000	      0.00000000	      0.00000000	      0.00000000	      0.00000000
      0.13000000	      0.00000000	     -0.00000000	      0.00000000	      0.00000000	      0.00000000	      0.00000000	      0.00000000	      0.00000000	      0.00000000	     -0.53526306	     27.71791077	   -430.87951660	   -312.67545120	   -979.17241374	      0.00000000	      0.00000000	      0.00000000	   3152.14519331	      0.81463196	    -25.66499717	   -356.41143799	   -284.47037819	   -723.38565359	      0.00000000	      0.00000000	     -0.00000000	  -2493.69567851	      0.00000000	     -0.00000000	      0.00000000	      0.00000000	      0.00000000	      0.00000000	      0.00000000	      0.00000000	      0.00000000
      0.14000000	      0.00000000	     -0.00000000	      0.00000000	      0.00000000	      0.00000000	      0.00000000	      0.00000000	      0.00000000	      0.00000000	     -0.55291474	     27.50554657	   -430.87951660	   -312.37779172	   -978.67249151	      0.00000000	      0.00000000	      0.00000000	   3151.45657328	      0.31994062	    -25.64803698	   -355.64526367	   -283.86234775	   -723.26233063	      0.00000000	      0.00000000	      0.00000000	  -2343.25566837	      0.00000000	     -0.00000000	      0.00000000	      0.00000000	      0.00000000	      0.00000000	      0.00000000	      0.00000000	      0.00000000
      0.15000000	      0.00000000	     -0.00000000	      0.00000000	      0.00000000	      0.00000000	      0.00000000	      0.00000000	      0.00000000	      0.00000000	     -0.71351862	     27.59473991	   -433.21105957	   -312.46438847	   -979.19876665	      0.00000000	      0.00000000	      0.00000000	   3171.58462136	      0.49669721	    -25.66620068	   -354.03814697	   -284.32168383	   -723.45958709	      0.00000000	      0.00000000	     -0.00000000	  -2362.05319891	      0.00000000	     -0.00000000	      0.00000000	      0.00000000	      0.00000000	      0.00000000	      0.00000000	      0.00000000	      0.00000000
      0.16000000	      0.00000000	     -0.00000000	      0.00000000	      0.00000000	      0.00000000	      0.00000000	      0.00000000	      0.00000000	      0.00000000	     -0.87417841	     27.48777390	   -433.63400269	   -313.28796236	   -979.54399764	      0.00000000	      0.00000000	      0.00000000	   3110.10018745	      0.26613015	    -25.24234965	   -352.57336426	   -284.06295820	   -723.17765412	      0.00000000	      0.00000000	     -0.00000000	  -2411.66511364	      0.00000000	     -0.00000000	      0.00000000	      0.00000000	      0.00000000	      0.00000000	      0.00000000	      0.00000000	      0.00000000
